<?xml version="1.0" encoding="utf-8"?>
<svg version="1.1" xmlns:xlink="http://www.w3.org/1999/xlink" width="50px" height="50px" xmlns="http://www.w3.org/2000/svg">
  <g transform="matrix(1 0 0 1 -383 -304 )">
    <path d="M 21.875 41.86197916666667  C 22.439236111111114 41.86197916666667  22.927517361111114 41.65581597222223  23.33984375 41.24348958333333  L 38.11848958333333 26.46484375  C 38.53081597222223 26.052517361111104  38.73697916666667 25.564236111111104  38.73697916666667 25  C 38.73697916666667 24.43576388888889  38.53081597222223 23.94748263888889  38.11848958333333 23.53515625  L 23.33984375 8.756510416666668  C 22.927517361111114 8.344184027777773  22.439236111111114 8.138020833333332  21.875 8.138020833333332  C 21.310763888888893 8.138020833333332  20.822482638888893 8.344184027777773  20.41015625 8.756510416666668  L 17.08984375 12.076822916666668  C 16.677517361111114 12.489149305555552  16.471354166666664 12.977430555555552  16.471354166666664 13.541666666666668  C 16.471354166666664 14.105902777777773  16.677517361111114 14.594184027777773  17.08984375 15.006510416666668  L 27.083333333333332 25  L 17.08984375 34.993489583333336  C 16.677517361111114 35.40581597222222  16.471354166666664 35.89409722222222  16.471354166666664 36.458333333333336  C 16.471354166666664 37.02256944444444  16.677517361111114 37.51085069444444  17.08984375 37.92317708333333  L 20.41015625 41.24348958333333  C 20.822482638888893 41.65581597222223  21.310763888888893 41.86197916666667  21.875 41.86197916666667  Z M 46.64713541666667 12.451171875  C 48.882378472222214 16.281467013888886  50 20.464409722222214  50 25  C 50 29.53559027777778  48.882378472222214 33.71853298611111  46.64713541666667 37.548828125  C 44.411892361111114 41.37912326388889  41.37912326388889 44.41189236111111  37.548828125 46.64713541666667  C 33.718532986111114 48.88237847222223  29.53559027777778 50  25 50  C 20.464409722222225 50  16.28146701388889 48.88237847222223  12.451171875 46.64713541666667  C 8.620876736111112 44.41189236111111  5.588107638888889 41.37912326388889  3.3528645833333335 37.548828125  C 1.1176215277777777 33.71853298611111  0 29.53559027777778  0 25  C 0 20.464409722222214  1.1176215277777777 16.281467013888886  3.3528645833333335 12.451171875  C 5.588107638888889 8.62087673611111  8.620876736111112 5.588107638888884  12.451171875 3.3528645833333313  C 16.28146701388889 1.1176215277777735  20.464409722222225 0  25 0  C 29.53559027777778 0  33.718532986111114 1.1176215277777735  37.548828125 3.3528645833333313  C 41.37912326388889 5.588107638888884  44.411892361111114 8.62087673611111  46.64713541666667 12.451171875  Z " fill-rule="nonzero" fill="#197dff" stroke="none" transform="matrix(1 0 0 1 383 304 )" />
  </g>
</svg>